<svg xmlns="http://www.w3.org/2000/svg" viewBox="0 0 500 420" fill="none">
  <!--
    SWAP: Replace with real lab petri dish photo — BEFORE Maple Air treatment.
    File to use: lab-before.jpg
    Shows: dense microbial colony growth on agar plate.
    Data: Max 1,358 CFU/m³ measured in lab conditions.
    Source: [Lab Name — SWAP with real source citation]
    Recommended size: 900×750px JPG
  -->
  <defs>
    <radialGradient id="petri-bg" cx="50%" cy="50%" r="50%">
      <stop offset="0%" stop-color="#d4b896"/>
      <stop offset="100%" stop-color="#b8956e"/>
    </radialGradient>
    <radialGradient id="colony" cx="50%" cy="50%" r="50%">
      <stop offset="0%" stop-color="#8b7355" stop-opacity="0.9"/>
      <stop offset="100%" stop-color="#6b5340" stop-opacity="0.7"/>
    </radialGradient>
  </defs>

  <rect width="500" height="420" fill="#1a1a1a"/>

  <!-- Petri dish outer ring -->
  <circle cx="250" cy="195" r="160" fill="none" stroke="#555" stroke-width="3"/>
  <!-- Agar medium -->
  <circle cx="250" cy="195" r="155" fill="url(#petri-bg)" opacity="0.9"/>

  <!-- Dense colony growth (before treatment) -->
  <circle cx="210" cy="160" r="22" fill="url(#colony)"/>
  <circle cx="265" cy="145" r="16" fill="url(#colony)"/>
  <circle cx="295" cy="175" r="20" fill="url(#colony)"/>
  <circle cx="240" cy="200" r="18" fill="url(#colony)"/>
  <circle cx="200" cy="215" r="14" fill="url(#colony)"/>
  <circle cx="280" cy="218" r="25" fill="url(#colony)"/>
  <circle cx="225" cy="235" r="12" fill="url(#colony)"/>
  <circle cx="255" cy="165" r="10" fill="url(#colony)"/>
  <circle cx="310" cy="145" r="14" fill="url(#colony)"/>
  <circle cx="185" cy="185" r="16" fill="url(#colony)"/>
  <circle cx="318" cy="205" r="11" fill="url(#colony)"/>
  <circle cx="245" cy="250" r="9" fill="url(#colony)"/>
  <circle cx="170" cy="200" r="12" fill="url(#colony)"/>
  <circle cx="290" cy="240" r="14" fill="url(#colony)"/>
  <circle cx="230" cy="170" r="8" fill="url(#colony)"/>
  <circle cx="310" cy="230" r="10" fill="url(#colony)"/>

  <!-- Label bar -->
  <rect x="0" y="348" width="500" height="72" fill="rgba(15,25,35,0.92)"/>
  <text x="250" y="374" font-family="Inter,sans-serif" font-size="11" font-weight="600" fill="rgba(255,255,255,0.5)" text-anchor="middle" letter-spacing="3">BEFORE MAPLE AIR</text>
  <text x="250" y="396" font-family="Fraunces,Georgia,serif" font-size="22" font-weight="600" fill="#e87070" text-anchor="middle">1,358 max CFU/m³</text>
  <text x="250" y="412" font-family="Inter,sans-serif" font-size="10" fill="rgba(255,255,255,0.3)" text-anchor="middle">SWAP: /assets/lab-before.jpg — actual petri dish photograph</text>
</svg>
