<svg xmlns="http://www.w3.org/2000/svg" viewBox="0 0 800 640" fill="none">
  <!-- SWAP: Replace this entire SVG with a real lifestyle photography image -->
  <!-- Suggested: bright, airy living room, natural light, family present, sage/cream palette -->
  <defs>
    <linearGradient id="bg" x1="0" y1="0" x2="1" y2="1">
      <stop offset="0%" stop-color="#f0f5f2"/>
      <stop offset="100%" stop-color="#e4ede8"/>
    </linearGradient>
    <linearGradient id="light" x1="0.3" y1="0" x2="0.7" y2="1">
      <stop offset="0%" stop-color="#ffffff" stop-opacity="0.9"/>
      <stop offset="100%" stop-color="#e4ede8" stop-opacity="0.3"/>
    </linearGradient>
  </defs>
  <rect width="800" height="640" fill="url(#bg)"/>
  <rect x="480" y="0" width="200" height="400" fill="url(#light)" opacity="0.6"/>
  <rect x="0" y="480" width="800" height="160" fill="#d4c9b8" opacity="0.4"/>
  <rect x="120" y="380" width="320" height="100" rx="12" fill="#c9d4cc" opacity="0.7"/>
  <rect x="108" y="360" width="60" height="120" rx="10" fill="#b8c9bc" opacity="0.7"/>
  <rect x="372" y="360" width="60" height="120" rx="10" fill="#b8c9bc" opacity="0.7"/>
  <rect x="130" y="350" width="130" height="50" rx="8" fill="#bac8be" opacity="0.6"/>
  <rect x="270" y="350" width="130" height="50" rx="8" fill="#bac8be" opacity="0.6"/>
  <rect x="180" y="440" width="200" height="60" rx="6" fill="#c4b8a6" opacity="0.5"/>
  <rect x="480" y="370" width="20" height="80" rx="4" fill="#8b7355" opacity="0.5"/>
  <ellipse cx="490" cy="350" rx="45" ry="55" fill="#4a7c59" opacity="0.3"/>
  <ellipse cx="460" cy="370" rx="30" ry="40" fill="#3d6b50" opacity="0.25"/>
  <ellipse cx="520" cy="365" rx="28" ry="38" fill="#5a8e6a" opacity="0.25"/>
  <rect x="500" y="40" width="220" height="300" rx="4" fill="none" stroke="#b8c4be" stroke-width="8"/>
  <line x1="610" y1="40" x2="610" y2="340" stroke="#b8c4be" stroke-width="4"/>
  <line x1="500" y1="190" x2="720" y2="190" stroke="#b8c4be" stroke-width="4"/>
  <circle cx="300" cy="200" r="3" fill="#4a7c59" opacity="0.15"/>
  <circle cx="340" cy="160" r="2" fill="#4a7c59" opacity="0.12"/>
  <circle cx="280" cy="230" r="2.5" fill="#4a7c59" opacity="0.1"/>
  <circle cx="350" cy="240" r="1.5" fill="#4a7c59" opacity="0.12"/>
  <text x="400" y="560" font-family="Inter, sans-serif" font-size="13" fill="#6b7280" text-anchor="middle" opacity="0.6">[ Hero lifestyle image — swap in real photography ]</text>
</svg>
